<svg xmlns="http://www.w3.org/2000/svg" viewBox="0 0 16 16" width="16" height="16" role="img" aria-label="Purple d20 with question mark">
  <defs>
    <linearGradient id="g" x1="3" y1="2" x2="13" y2="14" gradientUnits="userSpaceOnUse">
      <stop offset="0" stop-color="#8b68dc"/>
      <stop offset="1" stop-color="#6548bd"/>
    </linearGradient>
  </defs>

  <!-- d20 body -->
  <path d="M8 1.1 14.6 4.4 13.8 11.3 8 14.9 2.2 11.3 1.4 4.4Z" fill="url(#g)"/>

  <!-- simplified die facets, tuned for 16x16 favicon size -->
  <g fill="none" stroke="#fff" stroke-width="1.05" stroke-linecap="round" stroke-linejoin="round">
    <path d="M8 1.1v3.2"/>
    <path d="M1.4 4.4 8 4.3l6.6.1"/>
    <path d="M8 4.3 3.2 11.1"/>
    <path d="M8 4.3 12.8 11.1"/>
    <path d="M2.2 11.3h11.6"/>
    <path d="M3.2 11.1 8 14.9l4.8-3.8"/>
  </g>

  <!-- question mark -->
  <path d="M6.25 6.75c.05-1.05.8-1.75 1.95-1.75 1.18 0 1.92.68 1.92 1.66 0 .7-.36 1.14-.96 1.5-.48.3-.65.54-.65 1.07v.22H7.15v-.34c0-.8.34-1.2.9-1.55.43-.27.62-.48.62-.83 0-.38-.24-.63-.62-.63-.43 0-.7.28-.75.72Z" fill="#fff"/>
  <circle cx="7.83" cy="10.85" r=".78" fill="#fff"/>
</svg>
