<?xml version="1.0" encoding="UTF-8"?>
<svg version="1.1" xmlns="http://www.w3.org/2000/svg" width="16" height="16">
<path d="M0 0 C2.75 1.3125 2.75 1.3125 4.75 3.3125 C5.41002845 8.42772048 5.41002845 8.42772048 4.75 11.3125 C2 13.875 2 13.875 -1.25 15.3125 C-4.4277248 15.12557501 -6.30883111 13.78308444 -9.25 12.3125 C-9.25 9.0125 -9.25 5.7125 -9.25 2.3125 C-4.10997795 -0.86941841 -4.10997795 -0.86941841 0 0 Z " fill="#A696D6" transform="translate(10.25,0.6875)"/>
<path d="M0 0 C4.875 1.875 4.875 1.875 6 3 C6.5909853 8.15001479 6.5909853 8.15001479 6 11 C3.25 13.5625 3.25 13.5625 0 15 C-2.375 14.75 -2.375 14.75 -4 14 C-3.34 13.67 -2.68 13.34 -2 13 C-2 11.68 -2 10.36 -2 9 C-0.68 9 0.64 9 2 9 C1.67 8.443125 1.34 7.88625 1 7.3125 C-0.1309601 4.69715478 -0.15662974 2.8193354 0 0 Z " fill="#A899D6" transform="translate(9,1)"/>
<path d="M0 0 C2.31 0.33 4.62 0.66 7 1 C4.60490662 3.89932357 2.68754757 4.50168276 -1 5 C-1.33 4.34 -1.66 3.68 -2 3 C-1.34 3 -0.68 3 0 3 C0 2.01 0 1.02 0 0 Z " fill="#C1B7E2" transform="translate(7,11)"/>
<path d="M0 0 C0.33 0.66 0.66 1.32 1 2 C1.66 2 2.32 2 3 2 C3 3.32 3 4.64 3 6 C1.68 6 0.36 6 -1 6 C-1.33 4.35 -1.66 2.7 -2 1 C-1.34 0.67 -0.68 0.34 0 0 Z " fill="#9988CF" transform="translate(4,8)"/>
</svg>
